<?xml version="1.0" encoding="UTF-8" standalone="no"?>
<svg
   xmlns:dc="http://purl.org/dc/elements/1.1/"
   xmlns:cc="http://creativecommons.org/ns#"
   xmlns:rdf="http://www.w3.org/1999/02/22-rdf-syntax-ns#"
   xmlns:svg="http://www.w3.org/2000/svg"
   xmlns="http://www.w3.org/2000/svg"
   xmlns:sodipodi="http://sodipodi.sourceforge.net/DTD/sodipodi-0.dtd"
   xmlns:inkscape="http://www.inkscape.org/namespaces/inkscape"
   version="1.1"
   id="amiibo tag"
   x="0px"
   y="0px"
   viewBox="0 0 350.6 350.6"
   style="enable-background:new 0 0 350.6 350.6;"
   xml:space="preserve"
   inkscape:version="0.91 r13725"
   sodipodi:docname="app-icon.svg"><metadata
     id="metadata29"><rdf:RDF><cc:Work
         rdf:about=""><dc:format>image/svg+xml</dc:format><dc:type
           rdf:resource="http://purl.org/dc/dcmitype/StillImage" /><dc:title></dc:title></cc:Work></rdf:RDF></metadata><defs
     id="defs27" /><sodipodi:namedview
     pagecolor="#ffffff"
     bordercolor="#666666"
     borderopacity="1"
     objecttolerance="10"
     gridtolerance="10"
     guidetolerance="10"
     inkscape:pageopacity="0"
     inkscape:pageshadow="2"
     inkscape:window-width="1430"
     inkscape:window-height="742"
     id="namedview25"
     showgrid="false"
     inkscape:zoom="0.67313176"
     inkscape:cx="13.370339"
     inkscape:cy="175.3"
     inkscape:window-x="254"
     inkscape:window-y="137"
     inkscape:window-maximized="0"
     inkscape:current-layer="g5" /><style
     type="text/css"
     id="style3">
	.A{fill:#FFFFFF;}
	.B{fill:#F9A51A;}
	.C{fill:#ED3C95;}
	.D{fill:#00A78D;}
	.E{fill:#EC1B2E;}
	.F{fill:#9DCB3B;}
	.G{fill:#00B2EF;}
	.H{fill:#231F20;}
</style><g
     id="g5"><path
       class="A"
       d="M300.6,350.6H50.1C22.4,350.6,0,328.2,0,300.5V50.1C0,22.4,22.4,0,50.1,0h250.5c27.6,0,50.1,22.4,50.1,50.1   v250.4C350.6,328.2,328.2,350.6,300.6,350.6"
       id="path7" /><path
       class="B"
       d="M277.6,144.8l39.1,5.2c1.2,0.2,2.3-0.7,2.4-1.9c1.3-10.9,1.3-21.9,0-32.8c-0.1-1.2-1.2-2-2.4-1.8l-39.1,5.1   c-1.1,0.1-2,1.2-1.8,2.4c0.8,7.1,0.8,14.4,0,21.6C275.7,143.5,276.4,144.6,277.6,144.8"
       id="path9" /><path
       class="C"
       d="M257.9,192.1l31.2,24c0.9,0.7,2.3,0.6,3-0.4c6.6-8.8,12.1-18.4,16.4-28.4c0.5-1.1-0.1-2.3-1.2-2.8l-36.4-15.1   c-1.1-0.4-2.3,0.1-2.8,1.1c-2.9,6.6-6.5,12.9-10.8,18.7C256.8,190.1,257,191.4,257.9,192.1"
       id="path11" /><path
       class="D"
       d="M271,93.9l36.4-15.1c1.1-0.5,1.6-1.7,1.2-2.8c-4.3-10.1-9.9-19.6-16.4-28.4c-0.7-0.9-2.1-1.1-3-0.4l-31.3,24   c-0.9,0.7-1.1,2-0.4,2.9c4.3,5.8,7.9,12.1,10.8,18.7C268.7,93.8,269.9,94.3,271,93.9"
       id="path13" /><path
       class="E"
       d="M92.8,71.2l-31.2-24c-0.9-0.7-2.3-0.5-3,0.4c-6.5,8.8-12,18.3-16.4,28.4c-0.5,1.1,0.1,2.3,1.2,2.8l36.4,15.1   c1.1,0.5,2.3,0,2.8-1.1c2.9-6.6,6.6-12.8,10.8-18.7C93.8,73.2,93.7,71.9,92.8,71.2"
       id="path15" /><path
       class="F"
       d="M73,118.5L34,113.4c-1.2-0.1-2.3,0.7-2.4,1.9c-1.3,10.9-1.3,21.9-0.1,32.8c0.1,1.2,1.2,2,2.4,1.9l39.1-5.1   c1.2-0.1,2-1.2,1.8-2.3c-0.8-7.2-0.8-14.4,0.1-21.6C75,119.7,74.2,118.7,73,118.5"
       id="path17" /><path
       class="G"
       d="M79.6,169.4l-36.4,15.1c-1.1,0.4-1.6,1.7-1.2,2.8c4.3,10.1,9.9,19.6,16.4,28.4c0.7,0.9,2.1,1.1,3,0.4   l31.3-23.9c0.9-0.7,1.1-2,0.4-2.9c-4.3-5.8-7.9-12.1-10.8-18.7C81.9,169.5,80.7,169,79.6,169.4"
       id="path19" /><path
       class="H"
       d="M172.1,70.3c-36.5,0-62.9,28-62.9,61.6c0,39,27.2,61.1,59,61.1c6.5,0,14.9-0.8,19.9-2.9   c1.1-0.5,1.8-1.7,1.8-2.9v-29.3c0-1.4-1.4-2.4-2.7-2c-3.3,0.9-7.5,2-14.6,2c-11.6,0-24.9-8.3-24.9-26.9c0-14.7,11.4-25.5,24.8-25.5   c16.7,0,27,11.7,27,27.2V188c0,1.2,0.9,2.1,2.1,2.1h34.3c1.2,0,2.1-0.9,2.1-2.1v-57.1C238,94.6,212,70.3,172.1,70.3"
       id="path21" /><path
       class="H"
       d="M56.1,254.4c-14.8,0-25.5,11.3-25.5,24.9c0,15.8,11,24.7,23.9,24.7c2.6,0,6-0.3,8.1-1.2   c0.5-0.2,0.7-0.7,0.7-1.2v-11.9c0-0.6-0.5-1-1.1-0.8c-1.3,0.4-3,0.8-5.9,0.8c-4.7,0-10.1-3.4-10.1-10.9c0-5.9,4.6-10.3,10-10.3   c6.8,0,10.9,4.7,10.9,11V302c0,0.5,0.4,0.9,0.9,0.9h13.9c0.5,0,0.9-0.4,0.9-0.9v-23.1C82.8,264.2,72.2,254.4,56.1,254.4    M179.7,255.5h-13.9c-0.5,0-0.9,0.4-0.9,0.9V302c0,0.5,0.4,0.9,0.9,0.9h13.9c0.5,0,0.9-0.4,0.9-0.9v-45.6   C180.6,255.9,180.2,255.5,179.7,255.5 M172.8,233.5c-5,0-8.8,3.8-8.8,8.9c0,5.1,3.9,8.9,8.8,8.9c5,0,8.9-3.8,8.9-8.9   C181.6,237.3,177.8,233.5,172.8,233.5 M196.6,233.5c-5,0-8.9,3.8-8.9,8.9c0,5.1,3.9,8.9,8.9,8.9c4.9,0,8.9-3.8,8.9-8.9   C205.4,237.3,201.5,233.5,196.6,233.5 M203.5,255.5h-13.9c-0.5,0-0.8,0.4-0.8,0.9V302c0,0.5,0.4,0.9,0.8,0.9h13.9   c0.5,0,0.8-0.4,0.8-0.9v-45.6C204.3,255.9,204,255.5,203.5,255.5 M294.9,254.4c-13.7,0-25.1,11.1-25.1,24.8   c0,13.7,11.5,24.8,25.1,24.8c13.7,0,25.2-11.4,25.2-24.8C320.1,265.7,308.6,254.4,294.9,254.4 M294.9,289.8   c-6,0-10.5-4.7-10.5-10.6c0-5.9,4.5-10.6,10.5-10.6c6,0,10.5,4.7,10.5,10.6C305.4,285.1,300.9,289.8,294.9,289.8 M137.4,254.4   c-5.2,0-10,2.1-13.9,6.4c-3.9-4.2-8.8-6.4-13.9-6.4c-10.8,0-19.4,6.8-19.4,18.2V302c0,0.5,0.4,0.9,0.9,0.9h13.9   c0.5,0,0.8-0.4,0.8-0.9v-27.8c0-3.1,2.3-4.9,5-4.9s5,1.8,5,4.9V302c0,0.5,0.4,0.9,0.9,0.9h13.8c0.5,0,0.9-0.4,0.9-0.9v-27.8   c0-3.1,2.2-4.9,5-4.9c2.7,0,4.9,1.8,4.9,4.9V302c0,0.5,0.4,0.9,0.9,0.9H156c0.5,0,0.9-0.4,0.9-0.9v-29.4   C156.8,261.2,148.2,254.4,137.4,254.4 M240,254.4c-2.7,0-5.2,0.6-7,1.2c-0.5,0.2-0.8,0.6-0.8,1.1v12c0,0.6,0.5,1,1.1,0.8   c1.5-0.5,3.6-0.9,5.5-0.9c6.4,0,10.5,4.8,10.5,10.6c0,5.9-4.2,10.8-10.6,10.6c-5.8-0.2-10.4-4.8-10.4-10.6v-43.6   c0-0.5-0.4-0.9-0.9-0.9h-13.9c-0.4,0-0.9,0.4-0.9,0.9v43.2c0,14.9,10.1,25.3,26.3,25.3c14.1,0,25.9-11.1,25.9-24.9   C264.9,265.2,255.4,254.4,240,254.4"
       id="path23" /></g></svg>