<?xml version="1.0" encoding="UTF-8" standalone="no"?>
<svg
   xmlns:dc="http://purl.org/dc/elements/1.1/"
   xmlns:cc="http://creativecommons.org/ns#"
   xmlns:rdf="http://www.w3.org/1999/02/22-rdf-syntax-ns#"
   xmlns:svg="http://www.w3.org/2000/svg"
   xmlns="http://www.w3.org/2000/svg"
   xmlns:sodipodi="http://sodipodi.sourceforge.net/DTD/sodipodi-0.dtd"
   xmlns:inkscape="http://www.inkscape.org/namespaces/inkscape"
   version="1.1"
   id="amiibo tag"
   x="0px"
   y="0px"
   viewBox="0 0 350.6 350.6"
   style="enable-background:new 0 0 350.6 350.6;"
   xml:space="preserve"
   inkscape:version="0.91 r13725"
   sodipodi:docname="favicon.svg"><metadata
     id="metadata29"><rdf:RDF><cc:Work
         rdf:about=""><dc:format>image/svg+xml</dc:format><dc:type
           rdf:resource="http://purl.org/dc/dcmitype/StillImage" /><dc:title></dc:title></cc:Work></rdf:RDF></metadata><defs
     id="defs27" /><sodipodi:namedview
     pagecolor="#ffffff"
     bordercolor="#666666"
     borderopacity="1"
     objecttolerance="10"
     gridtolerance="10"
     guidetolerance="10"
     inkscape:pageopacity="0"
     inkscape:pageshadow="2"
     inkscape:window-width="1430"
     inkscape:window-height="742"
     id="namedview25"
     showgrid="false"
     inkscape:zoom="0.67313176"
     inkscape:cx="13.370339"
     inkscape:cy="175.3"
     inkscape:window-x="254"
     inkscape:window-y="137"
     inkscape:window-maximized="0"
     inkscape:current-layer="g5" /><style
     type="text/css"
     id="style3">
	.A{fill:#FFFFFF;}
	.B{fill:#F9A51A;}
	.C{fill:#ED3C95;}
	.D{fill:#00A78D;}
	.E{fill:#EC1B2E;}
	.F{fill:#9DCB3B;}
	.G{fill:#00B2EF;}
	.H{fill:#231F20;}
</style><g
     id="g5"><path
       class="A"
       d="m 301.63224,350.6 -250.499996,0 c -27.7,0 -50.1,-22.4 -50.1,-50.1 l 0,-250.4 c 0,-27.7 22.4,-50.1 50.1,-50.1 L 301.63224,0 c 27.6,0 50.1,22.4 50.1,50.1 l 0,250.4 c -0.1,27.7 -22.5,50.1 -50.1,50.1"
       id="path7"
       style="fill:#ffffff"
       inkscape:connector-curvature="0" /><g
       id="g4157"
       transform="matrix(1.1129093,0,0,1.1129093,-18.759237,28.768577)"><path
         id="path9"
         d="m 277.6,144.8 39.1,5.2 c 1.2,0.2 2.3,-0.7 2.4,-1.9 1.3,-10.9 1.3,-21.9 0,-32.8 -0.1,-1.2 -1.2,-2 -2.4,-1.8 l -39.1,5.1 c -1.1,0.1 -2,1.2 -1.8,2.4 0.8,7.1 0.8,14.4 0,21.6 -0.1,0.9 0.6,2 1.8,2.2"
         class="B"
         inkscape:connector-curvature="0"
         style="fill:#f9a51a" /><path
         id="path11"
         d="m 257.9,192.1 31.2,24 c 0.9,0.7 2.3,0.6 3,-0.4 6.6,-8.8 12.1,-18.4 16.4,-28.4 0.5,-1.1 -0.1,-2.3 -1.2,-2.8 l -36.4,-15.1 c -1.1,-0.4 -2.3,0.1 -2.8,1.1 -2.9,6.6 -6.5,12.9 -10.8,18.7 -0.5,0.9 -0.3,2.2 0.6,2.9"
         class="C"
         inkscape:connector-curvature="0"
         style="fill:#ed3c95" /><path
         id="path13"
         d="m 271,93.9 36.4,-15.1 c 1.1,-0.5 1.6,-1.7 1.2,-2.8 -4.3,-10.1 -9.9,-19.6 -16.4,-28.4 -0.7,-0.9 -2.1,-1.1 -3,-0.4 l -31.3,24 c -0.9,0.7 -1.1,2 -0.4,2.9 4.3,5.8 7.9,12.1 10.8,18.7 0.4,1 1.6,1.5 2.7,1.1"
         class="D"
         inkscape:connector-curvature="0"
         style="fill:#00a78d" /><path
         id="path15"
         d="m 92.8,71.2 -31.2,-24 c -0.9,-0.7 -2.3,-0.5 -3,0.4 -6.5,8.8 -12,18.3 -16.4,28.4 -0.5,1.1 0.1,2.3 1.2,2.8 l 36.4,15.1 c 1.1,0.5 2.3,0 2.8,-1.1 2.9,-6.6 6.6,-12.8 10.8,-18.7 0.4,-0.9 0.3,-2.2 -0.6,-2.9"
         class="E"
         inkscape:connector-curvature="0"
         style="fill:#ec1b2e" /><path
         id="path17"
         d="m 73,118.5 -39,-5.1 c -1.2,-0.1 -2.3,0.7 -2.4,1.9 -1.3,10.9 -1.3,21.9 -0.1,32.8 0.1,1.2 1.2,2 2.4,1.9 L 73,144.9 c 1.2,-0.1 2,-1.2 1.8,-2.3 C 74,135.4 74,128.2 74.9,121 75,119.7 74.2,118.7 73,118.5"
         class="F"
         inkscape:connector-curvature="0"
         style="fill:#9dcb3b" /><path
         id="path19"
         d="m 79.6,169.4 -36.4,15.1 c -1.1,0.4 -1.6,1.7 -1.2,2.8 4.3,10.1 9.9,19.6 16.4,28.4 0.7,0.9 2.1,1.1 3,0.4 l 31.3,-23.9 c 0.9,-0.7 1.1,-2 0.4,-2.9 -4.3,-5.8 -7.9,-12.1 -10.8,-18.7 -0.4,-1.1 -1.6,-1.6 -2.7,-1.2"
         class="G"
         inkscape:connector-curvature="0"
         style="fill:#00b2ef" /><path
         id="path21"
         d="m 172.1,70.3 c -36.5,0 -62.9,28 -62.9,61.6 0,39 27.2,61.1 59,61.1 6.5,0 14.9,-0.8 19.9,-2.9 1.1,-0.5 1.8,-1.7 1.8,-2.9 l 0,-29.3 c 0,-1.4 -1.4,-2.4 -2.7,-2 -3.3,0.9 -7.5,2 -14.6,2 -11.6,0 -24.9,-8.3 -24.9,-26.9 0,-14.7 11.4,-25.5 24.8,-25.5 16.7,0 27,11.7 27,27.2 l 0,55.3 c 0,1.2 0.9,2.1 2.1,2.1 l 34.3,0 c 1.2,0 2.1,-0.9 2.1,-2.1 l 0,-57.1 C 238,94.6 212,70.3 172.1,70.3"
         class="H"
         inkscape:connector-curvature="0"
         style="fill:#231f20" /></g></g></svg>